PathFileType	4	(X/Y/Z)	c:/Users/goper/Files/vsCode/490R/osim_files/C07/C07_Fast_02.trc
DataRate	CameraRate	NumFrames	NumMarkers	Units                	OrigDataRate	OrigDataStartFrame	OrigNumFrames
250.00	250.00	5	36	mm	250.0	870	1739
                Frame#	Time	LPSIS			LASIS			LTH1			LTH2			LTH3			LTH4			LLFE			LMFE			LSH1			LSH2			LSH3			LSH4			LLMAL			LMMAL			LCAL			LMTP5			LTOE			LMTP1			RPSIS			RASIS			RTH1			RTH2			RTH3			RTH4			RLFE			RMFE			RSH1			RSH2			RSH3			RSH4			RLMAL			RMMAL			RCAL			RMTP1			RTOE			RMTP5		
		X1	Y1	Z1	X2	Y2	Z2	X3	Y3	Z3	X4	Y4	Z4	X5	Y5	Z5	X6	Y6	Z6	X7	Y7	Z7	X8	Y8	Z8	X9	Y9	Z9	X10	Y10	Z10	X11	Y11	Z11	X12	Y12	Z12	X13	Y13	Z13	X14	Y14	Z14	X15	Y15	Z15	X16	Y16	Z16	X17	Y17	Z17	X18	Y18	Z18	X19	Y19	Z19	X20	Y20	Z20	X21	Y21	Z21	X22	Y22	Z22	X23	Y23	Z23	X24	Y24	Z24	X25	Y25	Z25	X26	Y26	Z26	X27	Y27	Z27	X28	Y28	Z28	X29	Y29	Z29	X30	Y30	Z30	X31	Y31	Z31	X32	Y32	Z32	X33	Y33	Z33	X34	Y34	Z34	X35	Y35	Z35	X36	Y36	Z36

870	3.47600	-1100.48389	963.98242	321.82129	-1267.57812	950.90192	400.01639	-1262.07922	749.21216	451.23016	-1302.98962	682.29266	447.21030	-1343.74170	619.46832	433.99170	-1371.68774	725.27411	435.64017	-1381.81946	506.12729	408.30579	-1395.90576	499.86786	289.33707	-1415.20996	317.91583	415.03455	-1414.62463	271.41055	397.95071	-1452.61792	335.77161	408.57965	-1462.85596	292.03818	397.97958	-1473.46277	101.17857	362.09637	-1496.09094	132.82524	292.53510	-1435.26514	37.41300	311.15237	-1614.78027	58.14059	384.52533	-1666.84143	91.48534	335.59937	-1639.88330	74.02159	282.87265	-1108.10168	974.97278	221.18216	-1268.40454	936.15112	143.25815	-1184.43396	797.56348	90.53134	-1160.79712	721.71265	95.72718	-1135.20947	644.96179	110.16982	-1227.25806	704.28595	131.59772	-1051.31970	485.84579	152.25777	-1053.92151	499.37894	261.59390	-911.14191	350.30521	144.80649	-914.88208	296.19025	143.39064	-965.90979	323.93875	149.02792	-943.90607	285.42029	155.31473	-807.10938	152.80069	199.32350	-837.84363	152.57692	277.27429	-740.40112	116.60024	252.08070	-930.50104	40.48606	275.82770	-950.11896	47.78024	229.08633	-903.26257	40.45061	168.26942
871	3.48000	-1106.67700	963.48804	322.28796	-1274.03638	950.71814	399.93536	-1268.83313	748.88892	450.71494	-1309.42249	681.69781	446.42102	-1349.91296	618.80969	432.95331	-1378.41064	724.41187	435.99500	-1388.60730	506.07187	407.91489	-1401.72253	499.39774	288.72006	-1420.55212	317.88492	414.22159	-1419.63135	271.47302	397.03101	-1458.32910	335.44211	407.73572	-1467.92456	291.57193	397.47412	-1476.79968	100.83398	362.14246	-1499.19751	132.07433	292.32153	-1436.32300	38.56520	311.08353	-1616.59021	55.34660	383.64532	-1669.35291	87.79295	334.76102	-1641.29932	71.06127	282.11389	-1114.16443	974.50385	221.45830	-1274.22485	935.43707	143.19655	-1190.04797	797.01978	90.71476	-1166.86121	721.92133	95.65596	-1139.97571	644.74188	109.58968	-1232.89380	703.66565	131.47531	-1056.57629	485.45847	152.09850	-1059.64551	498.90573	261.64087	-915.01489	351.38168	144.75697	-918.03729	297.01517	143.14738	-969.62817	324.35681	148.91898	-947.25214	286.10004	154.95909	-809.13696	154.68190	198.98373	-840.13318	153.89453	276.97495	-742.14075	119.35810	251.93307	-930.64929	40.62661	275.70679	-950.32275	47.85149	229.12184	-903.59113	40.57042	168.14877
872	3.48400	-1113.03040	963.24371	322.89981	-1280.56970	950.52594	399.77960	-1275.55420	748.54218	450.43530	-1315.82336	681.12323	445.86383	-1355.94067	618.21460	431.96307	-1384.76599	723.40564	435.90860	-1395.43567	506.04251	407.55090	-1407.32617	498.79767	288.25009	-1425.91248	317.95486	413.62637	-1424.71655	271.64282	396.56845	-1464.05798	335.22995	406.97424	-1473.25464	291.28528	397.39172	-1479.95520	100.58543	362.26654	-1502.08667	131.37346	292.18607	-1437.62573	39.24524	311.32745	-1618.32629	52.97925	382.72180	-1671.41919	84.18890	333.80432	-1642.69336	67.92146	281.31583	-1120.38196	974.11377	221.80766	-1279.74805	934.77808	143.13110	-1195.75781	796.50854	90.78015	-1172.46924	721.41425	95.68873	-1146.27307	643.94678	110.22569	-1238.60828	703.10345	131.29890	-1062.11133	485.05832	151.99005	-1065.41541	498.44043	261.61301	-919.03851	352.37399	144.67601	-921.49561	298.02267	142.85684	-973.34161	324.89218	148.62381	-950.47040	286.78329	154.67128	-811.25891	156.60498	198.33409	-842.61450	155.35266	276.68521	-744.28986	122.47617	251.01265	-930.76715	40.76594	275.51523	-950.66870	47.84972	229.01027	-903.93884	40.66582	168.04568
873	3.48800	-1119.23938	963.03363	323.42981	-1287.21460	950.57483	399.61795	-1282.23743	748.32849	450.34299	-1322.10828	680.68585	445.57108	-1362.15552	617.69696	430.94604	-1391.55957	722.74341	435.69327	-1402.03284	505.82147	407.26346	-1412.41040	498.15286	287.88480	-1431.32922	318.27011	413.48645	-1429.82385	271.88248	396.57996	-1469.78271	335.11340	406.27994	-1478.69653	291.21686	397.51791	-1482.77673	100.40159	362.38327	-1504.66492	130.63292	292.06653	-1438.61499	39.84017	311.46942	-1619.59924	50.50705	381.98029	-1673.41821	80.47865	332.88293	-1644.10950	64.51404	280.49860	-1126.42419	973.86707	222.12997	-1285.56140	934.10541	143.00360	-1201.45496	796.03497	90.95991	-1178.06482	721.07678	95.73739	-1151.03577	643.93146	109.61457	-1244.24963	702.58453	131.12364	-1067.65332	484.64542	151.76723	-1071.30603	497.81342	261.55212	-923.16095	353.52133	144.63249	-925.13214	298.86264	142.78864	-977.26459	325.32855	148.39616	-954.01392	287.52954	154.28688	-813.48499	158.71457	197.93536	-845.20441	156.95308	276.30093	-745.97742	125.18224	251.15897	-930.89722	40.80702	275.36121	-950.85016	47.89896	228.86276	-904.28766	40.73965	167.93639
874	3.49200	-1125.56494	963.06415	323.89380	-1293.71521	950.56006	399.34128	-1288.75012	748.13934	450.25204	-1328.36572	680.36786	445.35992	-1368.38867	617.33307	430.37296	-1398.04773	722.08557	434.99536	-1409.01025	505.89957	406.97949	-1417.38525	497.57059	287.59308	-1436.88818	318.78360	413.49417	-1434.93750	272.17786	396.97382	-1475.48083	335.07080	405.63766	-1484.01587	291.13815	397.71130	-1485.31580	100.18912	362.49042	-1507.03516	129.90164	291.87460	-1439.15820	40.48094	311.41327	-1620.79199	47.94252	381.29337	-1675.41528	76.39226	331.87119	-1645.51184	60.96233	279.81226	-1132.61389	973.66241	222.44113	-1292.19958	934.50433	143.26590	-1207.17822	795.60620	91.15401	-1183.89539	720.83942	95.82397	-1157.73083	643.13843	110.27754	-1250.01721	702.09418	131.04008	-1073.73950	484.21448	151.51192	-1077.59705	497.12738	261.53433	-927.45734	354.66504	144.58151	-928.73901	299.96063	142.41286	-981.30188	325.93597	148.04388	-957.76355	288.32626	153.95332	-815.88831	160.80452	197.16054	-848.01379	157.73633	274.54596	-748.25024	128.12105	251.12309	-931.04901	40.71693	275.21722	-951.30450	47.97749	228.78149	-904.61072	40.82787	167.79337
